<svg width="450" height="519" viewBox="0 0 450 519" fill="none" xmlns="http://www.w3.org/2000/svg">
<g id="Cards sale">
<g id="Rectangle 56">
<rect y="55" width="450" height="464" rx="15" fill="#D3E0DC"/>
<rect x="-0.5" y="54.5" width="451" height="465" rx="15.5" stroke="black" stroke-opacity="0.57"/>
</g>
<path id="Exclusive Sale" d="M104.465 231V205.8H120.917V209.508H109.073V216.42H119.837V220.02H109.073V227.292H120.917V231H104.465ZM123.585 231L130.065 222.072L123.585 213.144H128.517L133.053 219.48L137.553 213.144H142.521L136.005 222.072L142.521 231H137.553L133.053 224.664L128.517 231H123.585ZM153.364 231.432C151.54 231.432 149.932 231.036 148.54 230.244C147.148 229.452 146.044 228.348 145.228 226.932C144.436 225.516 144.04 223.896 144.04 222.072C144.04 220.248 144.436 218.628 145.228 217.212C146.044 215.796 147.148 214.692 148.54 213.9C149.932 213.108 151.54 212.712 153.364 212.712C155.644 212.712 157.564 213.312 159.124 214.512C160.684 215.688 161.68 217.32 162.112 219.408H157.252C157.012 218.544 156.532 217.872 155.812 217.392C155.116 216.888 154.288 216.636 153.328 216.636C152.056 216.636 150.976 217.116 150.088 218.076C149.2 219.036 148.756 220.368 148.756 222.072C148.756 223.776 149.2 225.108 150.088 226.068C150.976 227.028 152.056 227.508 153.328 227.508C154.288 227.508 155.116 227.268 155.812 226.788C156.532 226.308 157.012 225.624 157.252 224.736H162.112C161.68 226.752 160.684 228.372 159.124 229.596C157.564 230.82 155.644 231.432 153.364 231.432ZM166.31 231V205.08H170.918V231H166.31ZM182.43 231.432C180.198 231.432 178.47 230.736 177.246 229.344C176.046 227.952 175.446 225.912 175.446 223.224V213.144H180.018V222.792C180.018 224.328 180.33 225.504 180.954 226.32C181.578 227.136 182.562 227.544 183.906 227.544C185.178 227.544 186.222 227.088 187.038 226.176C187.878 225.264 188.298 223.992 188.298 222.36V213.144H192.906V231H188.838L188.478 227.976C187.926 229.032 187.122 229.872 186.066 230.496C185.034 231.12 183.822 231.432 182.43 231.432ZM205.124 231.432C203.54 231.432 202.148 231.18 200.948 230.676C199.748 230.148 198.788 229.428 198.068 228.516C197.348 227.604 196.916 226.548 196.772 225.348H201.416C201.56 226.044 201.944 226.644 202.568 227.148C203.216 227.628 204.044 227.868 205.052 227.868C206.06 227.868 206.792 227.664 207.248 227.256C207.728 226.848 207.968 226.38 207.968 225.852C207.968 225.084 207.632 224.568 206.96 224.304C206.288 224.016 205.352 223.74 204.152 223.476C203.384 223.308 202.604 223.104 201.812 222.864C201.02 222.624 200.288 222.324 199.616 221.964C198.968 221.58 198.44 221.1 198.032 220.524C197.624 219.924 197.42 219.192 197.42 218.328C197.42 216.744 198.044 215.412 199.292 214.332C200.564 213.252 202.34 212.712 204.62 212.712C206.732 212.712 208.412 213.204 209.66 214.188C210.932 215.172 211.688 216.528 211.928 218.256H207.572C207.308 216.936 206.312 216.276 204.584 216.276C203.72 216.276 203.048 216.444 202.568 216.78C202.112 217.116 201.884 217.536 201.884 218.04C201.884 218.568 202.232 218.988 202.928 219.3C203.624 219.612 204.548 219.9 205.7 220.164C206.948 220.452 208.088 220.776 209.12 221.136C210.176 221.472 211.016 221.988 211.64 222.684C212.264 223.356 212.576 224.328 212.576 225.6C212.6 226.704 212.312 227.7 211.712 228.588C211.112 229.476 210.248 230.172 209.12 230.676C207.992 231.18 206.66 231.432 205.124 231.432ZM219.25 210.372C218.41 210.372 217.714 210.12 217.162 209.616C216.634 209.112 216.37 208.476 216.37 207.708C216.37 206.94 216.634 206.316 217.162 205.836C217.714 205.332 218.41 205.08 219.25 205.08C220.09 205.08 220.774 205.332 221.302 205.836C221.854 206.316 222.13 206.94 222.13 207.708C222.13 208.476 221.854 209.112 221.302 209.616C220.774 210.12 220.09 210.372 219.25 210.372ZM216.946 231V213.144H221.554V231H216.946ZM231.296 231L224.744 213.144H229.568L234.104 226.644L238.64 213.144H243.464L236.876 231H231.296ZM254.276 231.432C252.476 231.432 250.88 231.048 249.488 230.28C248.096 229.512 247.004 228.432 246.212 227.04C245.42 225.648 245.024 224.04 245.024 222.216C245.024 220.368 245.408 218.724 246.176 217.284C246.968 215.844 248.048 214.728 249.416 213.936C250.808 213.12 252.44 212.712 254.312 212.712C256.064 212.712 257.612 213.096 258.956 213.864C260.3 214.632 261.344 215.688 262.088 217.032C262.856 218.352 263.24 219.828 263.24 221.46C263.24 221.724 263.228 222 263.204 222.288C263.204 222.576 263.192 222.876 263.168 223.188H249.596C249.692 224.58 250.172 225.672 251.036 226.464C251.924 227.256 252.992 227.652 254.24 227.652C255.176 227.652 255.956 227.448 256.58 227.04C257.228 226.608 257.708 226.056 258.02 225.384H262.7C262.364 226.512 261.8 227.544 261.008 228.48C260.24 229.392 259.28 230.112 258.128 230.64C257 231.168 255.716 231.432 254.276 231.432ZM254.312 216.456C253.184 216.456 252.188 216.78 251.324 217.428C250.46 218.052 249.908 219.012 249.668 220.308H258.56C258.488 219.132 258.056 218.196 257.264 217.5C256.472 216.804 255.488 216.456 254.312 216.456ZM284.621 231.432C282.773 231.432 281.141 231.12 279.725 230.496C278.309 229.848 277.193 228.936 276.377 227.76C275.561 226.56 275.141 225.108 275.117 223.404H279.977C280.025 224.58 280.445 225.576 281.237 226.392C282.053 227.184 283.169 227.58 284.585 227.58C285.809 227.58 286.781 227.292 287.501 226.716C288.221 226.116 288.581 225.324 288.581 224.34C288.581 223.308 288.257 222.504 287.609 221.928C286.985 221.352 286.145 220.884 285.089 220.524C284.033 220.164 282.905 219.78 281.705 219.372C279.761 218.7 278.273 217.836 277.241 216.78C276.233 215.724 275.729 214.32 275.729 212.568C275.705 211.08 276.053 209.808 276.773 208.752C277.517 207.672 278.525 206.844 279.797 206.268C281.069 205.668 282.533 205.368 284.189 205.368C285.869 205.368 287.345 205.668 288.617 206.268C289.913 206.868 290.921 207.708 291.641 208.788C292.385 209.868 292.781 211.152 292.829 212.64H287.897C287.873 211.752 287.525 210.972 286.853 210.3C286.205 209.604 285.293 209.256 284.117 209.256C283.109 209.232 282.257 209.484 281.561 210.012C280.889 210.516 280.553 211.26 280.553 212.244C280.553 213.084 280.817 213.756 281.345 214.26C281.873 214.74 282.593 215.148 283.505 215.484C284.417 215.82 285.461 216.18 286.637 216.564C287.885 216.996 289.025 217.5 290.057 218.076C291.089 218.652 291.917 219.42 292.541 220.38C293.165 221.316 293.477 222.528 293.477 224.016C293.477 225.336 293.141 226.56 292.469 227.688C291.797 228.816 290.801 229.728 289.481 230.424C288.161 231.096 286.541 231.432 284.621 231.432ZM303.654 231.432C302.118 231.432 300.858 231.192 299.874 230.712C298.89 230.208 298.158 229.548 297.678 228.732C297.198 227.916 296.958 227.016 296.958 226.032C296.958 224.376 297.606 223.032 298.902 222C300.198 220.968 302.142 220.452 304.734 220.452H309.27V220.02C309.27 218.796 308.922 217.896 308.226 217.32C307.53 216.744 306.666 216.456 305.634 216.456C304.698 216.456 303.882 216.684 303.186 217.14C302.49 217.572 302.058 218.22 301.89 219.084H297.39C297.51 217.788 297.942 216.66 298.686 215.7C299.454 214.74 300.438 214.008 301.638 213.504C302.838 212.976 304.182 212.712 305.67 212.712C308.214 212.712 310.218 213.348 311.682 214.62C313.146 215.892 313.878 217.692 313.878 220.02V231H309.954L309.522 228.12C308.994 229.08 308.25 229.872 307.29 230.496C306.354 231.12 305.142 231.432 303.654 231.432ZM304.698 227.832C306.018 227.832 307.038 227.4 307.758 226.536C308.502 225.672 308.97 224.604 309.162 223.332H305.238C304.014 223.332 303.138 223.56 302.61 224.016C302.082 224.448 301.818 224.988 301.818 225.636C301.818 226.332 302.082 226.872 302.61 227.256C303.138 227.64 303.834 227.832 304.698 227.832ZM318.383 231V205.08H322.991V231H318.383ZM336.484 231.432C334.684 231.432 333.088 231.048 331.696 230.28C330.304 229.512 329.212 228.432 328.42 227.04C327.628 225.648 327.232 224.04 327.232 222.216C327.232 220.368 327.616 218.724 328.384 217.284C329.176 215.844 330.256 214.728 331.624 213.936C333.016 213.12 334.648 212.712 336.52 212.712C338.272 212.712 339.82 213.096 341.164 213.864C342.508 214.632 343.552 215.688 344.296 217.032C345.064 218.352 345.448 219.828 345.448 221.46C345.448 221.724 345.436 222 345.412 222.288C345.412 222.576 345.4 222.876 345.376 223.188H331.804C331.9 224.58 332.38 225.672 333.244 226.464C334.132 227.256 335.2 227.652 336.448 227.652C337.384 227.652 338.164 227.448 338.788 227.04C339.436 226.608 339.916 226.056 340.228 225.384H344.908C344.572 226.512 344.008 227.544 343.216 228.48C342.448 229.392 341.488 230.112 340.336 230.64C339.208 231.168 337.924 231.432 336.484 231.432ZM336.52 216.456C335.392 216.456 334.396 216.78 333.532 217.428C332.668 218.052 332.116 219.012 331.876 220.308H340.768C340.696 219.132 340.264 218.196 339.472 217.5C338.68 216.804 337.696 216.456 336.52 216.456Z" fill="#878987"/>
<path id="We buy &#38; Rent your home  or We find your desired home to invest or buy" d="M98.8515 301L94.0787 283.545H96.2265L99.8742 297.761H100.045L103.761 283.545H106.147L109.863 297.761H110.033L113.681 283.545H115.829L111.056 301H108.874L105.022 287.091H104.886L101.033 301H98.8515ZM122.531 301.273C121.27 301.273 120.182 300.994 119.267 300.438C118.358 299.875 117.656 299.091 117.162 298.085C116.673 297.074 116.429 295.898 116.429 294.557C116.429 293.216 116.673 292.034 117.162 291.011C117.656 289.983 118.344 289.182 119.225 288.608C120.111 288.028 121.145 287.739 122.327 287.739C123.009 287.739 123.682 287.852 124.347 288.08C125.012 288.307 125.617 288.676 126.162 289.188C126.708 289.693 127.142 290.364 127.466 291.199C127.79 292.034 127.952 293.062 127.952 294.284V295.136H117.861V293.398H125.906C125.906 292.659 125.759 292 125.463 291.42C125.173 290.841 124.759 290.384 124.219 290.048C123.685 289.713 123.054 289.545 122.327 289.545C121.526 289.545 120.833 289.744 120.247 290.142C119.668 290.534 119.222 291.045 118.909 291.676C118.597 292.307 118.441 292.983 118.441 293.705V294.864C118.441 295.852 118.611 296.69 118.952 297.378C119.298 298.06 119.779 298.58 120.392 298.938C121.006 299.29 121.719 299.466 122.531 299.466C123.06 299.466 123.537 299.392 123.963 299.244C124.395 299.091 124.767 298.864 125.08 298.562C125.392 298.256 125.634 297.875 125.804 297.42L127.747 297.966C127.543 298.625 127.199 299.205 126.716 299.705C126.233 300.199 125.637 300.585 124.926 300.864C124.216 301.136 123.418 301.273 122.531 301.273ZM139.917 293.125V301H137.906V283.545H139.917V289.955H140.087C140.394 289.278 140.854 288.741 141.468 288.344C142.087 287.94 142.911 287.739 143.94 287.739C144.832 287.739 145.613 287.918 146.283 288.276C146.954 288.628 147.474 289.17 147.843 289.903C148.218 290.631 148.406 291.557 148.406 292.682V301H146.394V292.818C146.394 291.778 146.124 290.974 145.585 290.406C145.05 289.832 144.309 289.545 143.36 289.545C142.701 289.545 142.11 289.685 141.587 289.963C141.07 290.241 140.661 290.648 140.36 291.182C140.065 291.716 139.917 292.364 139.917 293.125ZM156.009 301.307C155.18 301.307 154.427 301.151 153.751 300.838C153.075 300.52 152.538 300.062 152.14 299.466C151.742 298.864 151.544 298.136 151.544 297.284C151.544 296.534 151.691 295.926 151.987 295.46C152.282 294.989 152.677 294.619 153.171 294.352C153.666 294.085 154.211 293.886 154.808 293.756C155.41 293.619 156.015 293.511 156.623 293.432C157.419 293.33 158.063 293.253 158.558 293.202C159.058 293.145 159.421 293.051 159.649 292.92C159.882 292.79 159.998 292.562 159.998 292.239V292.17C159.998 291.33 159.768 290.676 159.308 290.21C158.853 289.744 158.163 289.511 157.237 289.511C156.277 289.511 155.524 289.722 154.978 290.142C154.433 290.562 154.049 291.011 153.828 291.489L151.919 290.807C152.259 290.011 152.714 289.392 153.282 288.949C153.856 288.5 154.481 288.187 155.157 288.011C155.839 287.83 156.509 287.739 157.169 287.739C157.589 287.739 158.072 287.79 158.617 287.892C159.169 287.989 159.7 288.19 160.211 288.497C160.728 288.804 161.157 289.267 161.498 289.886C161.839 290.506 162.009 291.335 162.009 292.375V301H159.998V299.227H159.896C159.759 299.511 159.532 299.815 159.214 300.139C158.896 300.463 158.473 300.739 157.944 300.966C157.416 301.193 156.771 301.307 156.009 301.307ZM156.316 299.5C157.112 299.5 157.782 299.344 158.328 299.031C158.879 298.719 159.294 298.315 159.572 297.821C159.856 297.327 159.998 296.807 159.998 296.261V294.42C159.913 294.523 159.725 294.616 159.436 294.702C159.152 294.781 158.822 294.852 158.447 294.915C158.078 294.972 157.717 295.023 157.365 295.068C157.018 295.108 156.737 295.142 156.521 295.17C155.998 295.239 155.509 295.349 155.055 295.503C154.606 295.651 154.242 295.875 153.964 296.176C153.691 296.472 153.555 296.875 153.555 297.386C153.555 298.085 153.813 298.614 154.331 298.972C154.853 299.324 155.515 299.5 156.316 299.5ZM175.988 287.909L171.148 301H169.102L164.261 287.909H166.443L170.057 298.341H170.193L173.807 287.909H175.988ZM183.735 301.273C182.474 301.273 181.386 300.994 180.471 300.438C179.562 299.875 178.86 299.091 178.366 298.085C177.877 297.074 177.633 295.898 177.633 294.557C177.633 293.216 177.877 292.034 178.366 291.011C178.86 289.983 179.548 289.182 180.428 288.608C181.315 288.028 182.349 287.739 183.531 287.739C184.212 287.739 184.886 287.852 185.551 288.08C186.215 288.307 186.82 288.676 187.366 289.188C187.911 289.693 188.346 290.364 188.67 291.199C188.994 292.034 189.156 293.062 189.156 294.284V295.136H179.065V293.398H187.11C187.11 292.659 186.962 292 186.667 291.42C186.377 290.841 185.962 290.384 185.423 290.048C184.889 289.713 184.258 289.545 183.531 289.545C182.729 289.545 182.036 289.744 181.451 290.142C180.872 290.534 180.426 291.045 180.113 291.676C179.801 292.307 179.644 292.983 179.644 293.705V294.864C179.644 295.852 179.815 296.69 180.156 297.378C180.502 298.06 180.982 298.58 181.596 298.938C182.21 299.29 182.923 299.466 183.735 299.466C184.264 299.466 184.741 299.392 185.167 299.244C185.599 299.091 185.971 298.864 186.283 298.562C186.596 298.256 186.837 297.875 187.008 297.42L188.951 297.966C188.747 298.625 188.403 299.205 187.92 299.705C187.437 300.199 186.84 300.585 186.13 300.864C185.42 301.136 184.622 301.273 183.735 301.273ZM202.962 301.307C202.132 301.307 201.379 301.151 200.703 300.838C200.027 300.52 199.49 300.062 199.092 299.466C198.695 298.864 198.496 298.136 198.496 297.284C198.496 296.534 198.643 295.926 198.939 295.46C199.234 294.989 199.629 294.619 200.123 294.352C200.618 294.085 201.163 293.886 201.76 293.756C202.362 293.619 202.967 293.511 203.575 293.432C204.371 293.33 205.016 293.253 205.51 293.202C206.01 293.145 206.373 293.051 206.601 292.92C206.834 292.79 206.95 292.562 206.95 292.239V292.17C206.95 291.33 206.72 290.676 206.26 290.21C205.805 289.744 205.115 289.511 204.189 289.511C203.229 289.511 202.476 289.722 201.93 290.142C201.385 290.562 201.001 291.011 200.78 291.489L198.871 290.807C199.212 290.011 199.666 289.392 200.234 288.949C200.808 288.5 201.433 288.187 202.109 288.011C202.791 287.83 203.462 287.739 204.121 287.739C204.541 287.739 205.024 287.79 205.57 287.892C206.121 287.989 206.652 288.19 207.163 288.497C207.68 288.804 208.109 289.267 208.45 289.886C208.791 290.506 208.962 291.335 208.962 292.375V301H206.95V299.227H206.848C206.712 299.511 206.484 299.815 206.166 300.139C205.848 300.463 205.425 300.739 204.896 300.966C204.368 301.193 203.723 301.307 202.962 301.307ZM203.268 299.5C204.064 299.5 204.734 299.344 205.28 299.031C205.831 298.719 206.246 298.315 206.524 297.821C206.808 297.327 206.95 296.807 206.95 296.261V294.42C206.865 294.523 206.677 294.616 206.388 294.702C206.104 294.781 205.774 294.852 205.399 294.915C205.03 294.972 204.669 295.023 204.317 295.068C203.97 295.108 203.689 295.142 203.473 295.17C202.95 295.239 202.462 295.349 202.007 295.503C201.558 295.651 201.195 295.875 200.916 296.176C200.643 296.472 200.507 296.875 200.507 297.386C200.507 298.085 200.766 298.614 201.283 298.972C201.805 299.324 202.467 299.5 203.268 299.5ZM214.716 293.125V301H212.705V287.909H214.648V289.955H214.818C215.125 289.29 215.591 288.756 216.216 288.352C216.841 287.943 217.648 287.739 218.637 287.739C219.523 287.739 220.298 287.92 220.963 288.284C221.628 288.642 222.145 289.188 222.514 289.92C222.884 290.648 223.068 291.568 223.068 292.682V301H221.057V292.818C221.057 291.79 220.79 290.989 220.256 290.415C219.722 289.835 218.989 289.545 218.057 289.545C217.415 289.545 216.841 289.685 216.335 289.963C215.835 290.241 215.441 290.648 215.151 291.182C214.861 291.716 214.716 292.364 214.716 293.125ZM238.956 301.273C237.774 301.273 236.737 300.991 235.845 300.429C234.959 299.866 234.266 299.08 233.766 298.068C233.271 297.057 233.024 295.875 233.024 294.523C233.024 293.159 233.271 291.969 233.766 290.952C234.266 289.935 234.959 289.145 235.845 288.582C236.737 288.02 237.774 287.739 238.956 287.739C240.138 287.739 241.172 288.02 242.058 288.582C242.95 289.145 243.643 289.935 244.138 290.952C244.638 291.969 244.888 293.159 244.888 294.523C244.888 295.875 244.638 297.057 244.138 298.068C243.643 299.08 242.95 299.866 242.058 300.429C241.172 300.991 240.138 301.273 238.956 301.273ZM238.956 299.466C239.854 299.466 240.592 299.236 241.172 298.776C241.751 298.315 242.18 297.71 242.459 296.96C242.737 296.21 242.876 295.398 242.876 294.523C242.876 293.648 242.737 292.832 242.459 292.077C242.18 291.321 241.751 290.71 241.172 290.244C240.592 289.778 239.854 289.545 238.956 289.545C238.058 289.545 237.32 289.778 236.74 290.244C236.161 290.71 235.732 291.321 235.453 292.077C235.175 292.832 235.036 293.648 235.036 294.523C235.036 295.398 235.175 296.21 235.453 296.96C235.732 297.71 236.161 298.315 236.74 298.776C237.32 299.236 238.058 299.466 238.956 299.466ZM253.86 287.909V289.614H246.803V287.909H253.86ZM248.916 301V286.102C248.916 285.352 249.093 284.727 249.445 284.227C249.797 283.727 250.255 283.352 250.817 283.102C251.38 282.852 251.973 282.727 252.598 282.727C253.093 282.727 253.496 282.767 253.808 282.847C254.121 282.926 254.354 283 254.507 283.068L253.928 284.807C253.826 284.773 253.683 284.73 253.502 284.679C253.326 284.628 253.093 284.602 252.803 284.602C252.138 284.602 251.658 284.77 251.362 285.105C251.073 285.44 250.928 285.932 250.928 286.58V301H248.916ZM262.58 287.909V289.614H255.523V287.909H262.58ZM257.637 301V286.102C257.637 285.352 257.813 284.727 258.165 284.227C258.518 283.727 258.975 283.352 259.537 283.102C260.1 282.852 260.694 282.727 261.319 282.727C261.813 282.727 262.216 282.767 262.529 282.847C262.841 282.926 263.074 283 263.228 283.068L262.648 284.807C262.546 284.773 262.404 284.73 262.222 284.679C262.046 284.628 261.813 284.602 261.523 284.602C260.858 284.602 260.378 284.77 260.083 285.105C259.793 285.44 259.648 285.932 259.648 286.58V301H257.637ZM270.421 301.273C269.159 301.273 268.071 300.994 267.156 300.438C266.247 299.875 265.546 299.091 265.051 298.085C264.563 297.074 264.318 295.898 264.318 294.557C264.318 293.216 264.563 292.034 265.051 291.011C265.546 289.983 266.233 289.182 267.114 288.608C268 288.028 269.034 287.739 270.216 287.739C270.898 287.739 271.571 287.852 272.236 288.08C272.901 288.307 273.506 288.676 274.051 289.188C274.597 289.693 275.031 290.364 275.355 291.199C275.679 292.034 275.841 293.062 275.841 294.284V295.136H265.75V293.398H273.796C273.796 292.659 273.648 292 273.352 291.42C273.063 290.841 272.648 290.384 272.108 290.048C271.574 289.713 270.943 289.545 270.216 289.545C269.415 289.545 268.722 289.744 268.136 290.142C267.557 290.534 267.111 291.045 266.798 291.676C266.486 292.307 266.33 292.983 266.33 293.705V294.864C266.33 295.852 266.5 296.69 266.841 297.378C267.188 298.06 267.668 298.58 268.281 298.938C268.895 299.29 269.608 299.466 270.421 299.466C270.949 299.466 271.426 299.392 271.852 299.244C272.284 299.091 272.656 298.864 272.969 298.562C273.281 298.256 273.523 297.875 273.693 297.42L275.636 297.966C275.432 298.625 275.088 299.205 274.605 299.705C274.122 300.199 273.526 300.585 272.815 300.864C272.105 301.136 271.307 301.273 270.421 301.273ZM278.973 301V287.909H280.916V289.886H281.052C281.291 289.239 281.723 288.713 282.348 288.31C282.973 287.906 283.677 287.705 284.461 287.705C284.609 287.705 284.794 287.707 285.015 287.713C285.237 287.719 285.404 287.727 285.518 287.739V289.784C285.45 289.767 285.294 289.741 285.049 289.707C284.811 289.668 284.558 289.648 284.291 289.648C283.654 289.648 283.086 289.781 282.586 290.048C282.092 290.31 281.7 290.673 281.41 291.139C281.126 291.599 280.984 292.125 280.984 292.716V301H278.973ZM300.285 301.273C299.024 301.273 297.936 300.994 297.021 300.438C296.112 299.875 295.41 299.091 294.916 298.085C294.427 297.074 294.183 295.898 294.183 294.557C294.183 293.216 294.427 292.034 294.916 291.011C295.41 289.983 296.097 289.182 296.978 288.608C297.865 288.028 298.899 287.739 300.08 287.739C300.762 287.739 301.436 287.852 302.1 288.08C302.765 288.307 303.37 288.676 303.916 289.188C304.461 289.693 304.896 290.364 305.22 291.199C305.543 292.034 305.705 293.062 305.705 294.284V295.136H295.615V293.398H303.66C303.66 292.659 303.512 292 303.217 291.42C302.927 290.841 302.512 290.384 301.972 290.048C301.438 289.713 300.808 289.545 300.08 289.545C299.279 289.545 298.586 289.744 298.001 290.142C297.421 290.534 296.975 291.045 296.663 291.676C296.35 292.307 296.194 292.983 296.194 293.705V294.864C296.194 295.852 296.365 296.69 296.705 297.378C297.052 298.06 297.532 298.58 298.146 298.938C298.759 299.29 299.472 299.466 300.285 299.466C300.813 299.466 301.291 299.392 301.717 299.244C302.149 299.091 302.521 298.864 302.833 298.562C303.146 298.256 303.387 297.875 303.558 297.42L305.501 297.966C305.296 298.625 304.953 299.205 304.47 299.705C303.987 300.199 303.39 300.585 302.68 300.864C301.97 301.136 301.171 301.273 300.285 301.273ZM319.143 287.909L314.302 301H312.257L307.416 287.909H309.598L313.211 298.341H313.348L316.961 287.909H319.143ZM326.89 301.273C325.629 301.273 324.54 300.994 323.626 300.438C322.717 299.875 322.015 299.091 321.521 298.085C321.032 297.074 320.788 295.898 320.788 294.557C320.788 293.216 321.032 292.034 321.521 291.011C322.015 289.983 322.702 289.182 323.583 288.608C324.469 288.028 325.504 287.739 326.685 287.739C327.367 287.739 328.04 287.852 328.705 288.08C329.37 288.307 329.975 288.676 330.521 289.188C331.066 289.693 331.501 290.364 331.825 291.199C332.148 292.034 332.31 293.062 332.31 294.284V295.136H322.219V293.398H330.265C330.265 292.659 330.117 292 329.822 291.42C329.532 290.841 329.117 290.384 328.577 290.048C328.043 289.713 327.413 289.545 326.685 289.545C325.884 289.545 325.191 289.744 324.606 290.142C324.026 290.534 323.58 291.045 323.268 291.676C322.955 292.307 322.799 292.983 322.799 293.705V294.864C322.799 295.852 322.969 296.69 323.31 297.378C323.657 298.06 324.137 298.58 324.751 298.938C325.364 299.29 326.077 299.466 326.89 299.466C327.418 299.466 327.896 299.392 328.322 299.244C328.754 299.091 329.126 298.864 329.438 298.562C329.751 298.256 329.992 297.875 330.163 297.42L332.106 297.966C331.901 298.625 331.558 299.205 331.075 299.705C330.592 300.199 329.995 300.585 329.285 300.864C328.575 301.136 327.776 301.273 326.89 301.273ZM335.442 301V287.909H337.385V289.886H337.522C337.76 289.239 338.192 288.713 338.817 288.31C339.442 287.906 340.147 287.705 340.931 287.705C341.078 287.705 341.263 287.707 341.485 287.713C341.706 287.719 341.874 287.727 341.987 287.739V289.784C341.919 289.767 341.763 289.741 341.519 289.707C341.28 289.668 341.027 289.648 340.76 289.648C340.124 289.648 339.556 289.781 339.056 290.048C338.561 290.31 338.169 290.673 337.88 291.139C337.595 291.599 337.453 292.125 337.453 292.716V301H335.442ZM346.138 305.909C345.797 305.909 345.493 305.881 345.226 305.824C344.959 305.773 344.774 305.722 344.672 305.67L345.183 303.898C345.672 304.023 346.103 304.068 346.478 304.034C346.853 304 347.186 303.832 347.476 303.531C347.771 303.236 348.041 302.756 348.285 302.091L348.66 301.068L343.819 287.909H346.001L349.615 298.341H349.751L353.365 287.909H355.547L349.99 302.909C349.74 303.585 349.43 304.145 349.061 304.588C348.692 305.037 348.263 305.369 347.774 305.585C347.291 305.801 346.746 305.909 346.138 305.909ZM74.1599 330L70.1712 316.909H72.2849L75.1144 326.932H75.2508L78.0462 316.909H80.194L82.9553 326.898H83.0917L85.9212 316.909H88.0349L84.0462 330H82.069L79.2053 319.943H79.0008L76.1371 330H74.1599ZM95.8093 330.273C94.5479 330.273 93.4599 329.994 92.5451 329.438C91.636 328.875 90.9343 328.091 90.44 327.085C89.9513 326.074 89.707 324.898 89.707 323.557C89.707 322.216 89.9513 321.034 90.44 320.011C90.9343 318.983 91.6218 318.182 92.5025 317.608C93.3888 317.028 94.4229 316.739 95.6047 316.739C96.2866 316.739 96.9599 316.852 97.6246 317.08C98.2894 317.307 98.8945 317.676 99.44 318.188C99.9854 318.693 100.42 319.364 100.744 320.199C101.068 321.034 101.23 322.062 101.23 323.284V324.136H91.1388V322.398H99.1843C99.1843 321.659 99.0366 321 98.7411 320.42C98.4513 319.841 98.0366 319.384 97.4968 319.048C96.9627 318.713 96.332 318.545 95.6047 318.545C94.8036 318.545 94.1104 318.744 93.5252 319.142C92.9457 319.534 92.4996 320.045 92.1871 320.676C91.8746 321.307 91.7184 321.983 91.7184 322.705V323.864C91.7184 324.852 91.8888 325.69 92.2297 326.378C92.5763 327.06 93.0565 327.58 93.6701 327.938C94.2837 328.29 94.9968 328.466 95.8093 328.466C96.3377 328.466 96.815 328.392 97.2411 328.244C97.6729 328.091 98.0451 327.864 98.3576 327.562C98.6701 327.256 98.9116 326.875 99.082 326.42L101.025 326.966C100.821 327.625 100.477 328.205 99.994 328.705C99.511 329.199 98.9144 329.585 98.2042 329.864C97.494 330.136 96.6957 330.273 95.8093 330.273ZM109.85 330.273C108.589 330.273 107.501 329.994 106.586 329.438C105.677 328.875 104.975 328.091 104.481 327.085C103.992 326.074 103.748 324.898 103.748 323.557C103.748 322.216 103.992 321.034 104.481 320.011C104.975 318.983 105.663 318.182 106.543 317.608C107.43 317.028 108.464 316.739 109.645 316.739C110.327 316.739 111.001 316.852 111.665 317.08C112.33 317.307 112.935 317.676 113.481 318.188C114.026 318.693 114.461 319.364 114.785 320.199C115.109 321.034 115.27 322.062 115.27 323.284V324.136H105.18V322.398H113.225C113.225 321.659 113.077 321 112.782 320.42C112.492 319.841 112.077 319.384 111.538 319.048C111.003 318.713 110.373 318.545 109.645 318.545C108.844 318.545 108.151 318.744 107.566 319.142C106.986 319.534 106.54 320.045 106.228 320.676C105.915 321.307 105.759 321.983 105.759 322.705V323.864C105.759 324.852 105.93 325.69 106.27 326.378C106.617 327.06 107.097 327.58 107.711 327.938C108.324 328.29 109.038 328.466 109.85 328.466C110.378 328.466 110.856 328.392 111.282 328.244C111.714 328.091 112.086 327.864 112.398 327.562C112.711 327.256 112.952 326.875 113.123 326.42L115.066 326.966C114.861 327.625 114.518 328.205 114.035 328.705C113.552 329.199 112.955 329.585 112.245 329.864C111.535 330.136 110.736 330.273 109.85 330.273ZM120.277 325.227L120.243 322.739H120.652L126.379 316.909H128.868L122.766 323.08H122.595L120.277 325.227ZM118.402 330V312.545H120.414V330H118.402ZM126.72 330L121.607 323.523L123.039 322.125L129.277 330H126.72ZM132.995 330.136C132.574 330.136 132.213 329.986 131.912 329.685C131.611 329.384 131.461 329.023 131.461 328.602C131.461 328.182 131.611 327.821 131.912 327.52C132.213 327.219 132.574 327.068 132.995 327.068C133.415 327.068 133.776 327.219 134.077 327.52C134.378 327.821 134.529 328.182 134.529 328.602C134.529 328.881 134.458 329.136 134.316 329.369C134.179 329.602 133.995 329.79 133.762 329.932C133.535 330.068 133.279 330.136 132.995 330.136ZM145.305 330V312.545H155.771V314.42H147.419V320.318H154.987V322.193H147.419V330H145.305ZM163.547 330.273C162.366 330.273 161.329 329.991 160.437 329.429C159.55 328.866 158.857 328.08 158.357 327.068C157.863 326.057 157.616 324.875 157.616 323.523C157.616 322.159 157.863 320.969 158.357 319.952C158.857 318.935 159.55 318.145 160.437 317.582C161.329 317.02 162.366 316.739 163.547 316.739C164.729 316.739 165.763 317.02 166.65 317.582C167.542 318.145 168.235 318.935 168.729 319.952C169.229 320.969 169.479 322.159 169.479 323.523C169.479 324.875 169.229 326.057 168.729 327.068C168.235 328.08 167.542 328.866 166.65 329.429C165.763 329.991 164.729 330.273 163.547 330.273ZM163.547 328.466C164.445 328.466 165.184 328.236 165.763 327.776C166.343 327.315 166.772 326.71 167.05 325.96C167.329 325.21 167.468 324.398 167.468 323.523C167.468 322.648 167.329 321.832 167.05 321.077C166.772 320.321 166.343 319.71 165.763 319.244C165.184 318.778 164.445 318.545 163.547 318.545C162.65 318.545 161.911 318.778 161.331 319.244C160.752 319.71 160.323 320.321 160.045 321.077C159.766 321.832 159.627 322.648 159.627 323.523C159.627 324.398 159.766 325.21 160.045 325.96C160.323 326.71 160.752 327.315 161.331 327.776C161.911 328.236 162.65 328.466 163.547 328.466ZM174.633 312.545V330H172.622V312.545H174.633ZM180.4 312.545V330H178.389V312.545H180.4ZM189.474 330.273C188.293 330.273 187.256 329.991 186.364 329.429C185.477 328.866 184.784 328.08 184.284 327.068C183.79 326.057 183.543 324.875 183.543 323.523C183.543 322.159 183.79 320.969 184.284 319.952C184.784 318.935 185.477 318.145 186.364 317.582C187.256 317.02 188.293 316.739 189.474 316.739C190.656 316.739 191.69 317.02 192.577 317.582C193.469 318.145 194.162 318.935 194.656 319.952C195.156 320.969 195.406 322.159 195.406 323.523C195.406 324.875 195.156 326.057 194.656 327.068C194.162 328.08 193.469 328.866 192.577 329.429C191.69 329.991 190.656 330.273 189.474 330.273ZM189.474 328.466C190.372 328.466 191.111 328.236 191.69 327.776C192.27 327.315 192.699 326.71 192.977 325.96C193.256 325.21 193.395 324.398 193.395 323.523C193.395 322.648 193.256 321.832 192.977 321.077C192.699 320.321 192.27 319.71 191.69 319.244C191.111 318.778 190.372 318.545 189.474 318.545C188.577 318.545 187.838 318.778 187.258 319.244C186.679 319.71 186.25 320.321 185.971 321.077C185.693 321.832 185.554 322.648 185.554 323.523C185.554 324.398 185.693 325.21 185.971 325.96C186.25 326.71 186.679 327.315 187.258 327.776C187.838 328.236 188.577 328.466 189.474 328.466ZM201.069 330L197.08 316.909H199.194L202.024 326.932H202.16L204.955 316.909H207.103L209.865 326.898H210.001L212.83 316.909H214.944L210.955 330H208.978L206.115 319.943H205.91L203.046 330H201.069ZM229.815 330.273C228.634 330.273 227.597 329.991 226.705 329.429C225.818 328.866 225.125 328.08 224.625 327.068C224.131 326.057 223.884 324.875 223.884 323.523C223.884 322.159 224.131 320.969 224.625 319.952C225.125 318.935 225.818 318.145 226.705 317.582C227.597 317.02 228.634 316.739 229.815 316.739C230.997 316.739 232.031 317.02 232.918 317.582C233.81 318.145 234.503 318.935 234.997 319.952C235.497 320.969 235.747 322.159 235.747 323.523C235.747 324.875 235.497 326.057 234.997 327.068C234.503 328.08 233.81 328.866 232.918 329.429C232.031 329.991 230.997 330.273 229.815 330.273ZM229.815 328.466C230.713 328.466 231.452 328.236 232.031 327.776C232.611 327.315 233.04 326.71 233.318 325.96C233.597 325.21 233.736 324.398 233.736 323.523C233.736 322.648 233.597 321.832 233.318 321.077C233.04 320.321 232.611 319.71 232.031 319.244C231.452 318.778 230.713 318.545 229.815 318.545C228.918 318.545 228.179 318.778 227.599 319.244C227.02 319.71 226.591 320.321 226.312 321.077C226.034 321.832 225.895 322.648 225.895 323.523C225.895 324.398 226.034 325.21 226.312 325.96C226.591 326.71 227.02 327.315 227.599 327.776C228.179 328.236 228.918 328.466 229.815 328.466ZM247.139 324.648V316.909H249.151V330H247.139V327.784H247.003C246.696 328.449 246.219 329.014 245.571 329.48C244.924 329.94 244.105 330.17 243.117 330.17C242.299 330.17 241.571 329.991 240.935 329.634C240.299 329.27 239.799 328.724 239.435 327.997C239.071 327.264 238.889 326.341 238.889 325.227V316.909H240.901V325.091C240.901 326.045 241.168 326.807 241.702 327.375C242.242 327.943 242.929 328.227 243.764 328.227C244.264 328.227 244.773 328.099 245.29 327.844C245.813 327.588 246.25 327.196 246.603 326.668C246.96 326.139 247.139 325.466 247.139 324.648ZM252.907 330V316.909H254.85V318.886H254.986C255.225 318.239 255.657 317.713 256.282 317.31C256.907 316.906 257.611 316.705 258.395 316.705C258.543 316.705 258.728 316.707 258.949 316.713C259.171 316.719 259.339 316.727 259.452 316.739V318.784C259.384 318.767 259.228 318.741 258.983 318.707C258.745 318.668 258.492 318.648 258.225 318.648C257.589 318.648 257.02 318.781 256.52 319.048C256.026 319.31 255.634 319.673 255.344 320.139C255.06 320.599 254.918 321.125 254.918 321.716V330H252.907ZM271.117 312.545V330H269.003V312.545H271.117ZM277.165 322.125V330H275.154V316.909H277.097V318.955H277.268C277.574 318.29 278.04 317.756 278.665 317.352C279.29 316.943 280.097 316.739 281.086 316.739C281.972 316.739 282.748 316.92 283.413 317.284C284.077 317.642 284.594 318.188 284.964 318.92C285.333 319.648 285.518 320.568 285.518 321.682V330H283.506V321.818C283.506 320.79 283.239 319.989 282.705 319.415C282.171 318.835 281.438 318.545 280.506 318.545C279.864 318.545 279.29 318.685 278.785 318.963C278.285 319.241 277.89 319.648 277.6 320.182C277.31 320.716 277.165 321.364 277.165 322.125ZM298.538 319.841L296.731 320.352C296.617 320.051 296.45 319.759 296.228 319.474C296.012 319.185 295.717 318.946 295.342 318.759C294.967 318.571 294.487 318.477 293.901 318.477C293.1 318.477 292.433 318.662 291.899 319.031C291.37 319.395 291.106 319.858 291.106 320.42C291.106 320.92 291.288 321.315 291.651 321.605C292.015 321.895 292.583 322.136 293.356 322.33L295.299 322.807C296.47 323.091 297.342 323.526 297.916 324.111C298.49 324.69 298.776 325.437 298.776 326.352C298.776 327.102 298.561 327.773 298.129 328.364C297.703 328.955 297.106 329.42 296.339 329.761C295.572 330.102 294.68 330.273 293.663 330.273C292.328 330.273 291.222 329.983 290.347 329.403C289.472 328.824 288.918 327.977 288.686 326.864L290.595 326.386C290.776 327.091 291.12 327.619 291.626 327.972C292.137 328.324 292.805 328.5 293.629 328.5C294.566 328.5 295.311 328.301 295.862 327.903C296.418 327.5 296.697 327.017 296.697 326.455C296.697 326 296.538 325.619 296.22 325.312C295.901 325 295.413 324.767 294.754 324.614L292.572 324.102C291.373 323.818 290.492 323.378 289.93 322.781C289.373 322.179 289.095 321.426 289.095 320.523C289.095 319.784 289.302 319.131 289.717 318.562C290.137 317.994 290.708 317.548 291.43 317.224C292.157 316.901 292.981 316.739 293.901 316.739C295.197 316.739 296.214 317.023 296.953 317.591C297.697 318.159 298.225 318.909 298.538 319.841ZM307.569 316.909V318.614H300.785V316.909H307.569ZM302.763 313.773H304.774V326.25C304.774 326.818 304.856 327.244 305.021 327.528C305.191 327.807 305.407 327.994 305.669 328.091C305.936 328.182 306.217 328.227 306.513 328.227C306.734 328.227 306.916 328.216 307.058 328.193C307.2 328.165 307.314 328.142 307.399 328.125L307.808 329.932C307.672 329.983 307.481 330.034 307.237 330.085C306.993 330.142 306.683 330.17 306.308 330.17C305.74 330.17 305.183 330.048 304.638 329.804C304.098 329.56 303.649 329.188 303.291 328.688C302.939 328.188 302.763 327.557 302.763 326.795V313.773ZM314.519 330.307C313.69 330.307 312.937 330.151 312.261 329.838C311.585 329.52 311.048 329.062 310.65 328.466C310.252 327.864 310.053 327.136 310.053 326.284C310.053 325.534 310.201 324.926 310.496 324.46C310.792 323.989 311.187 323.619 311.681 323.352C312.175 323.085 312.721 322.886 313.317 322.756C313.92 322.619 314.525 322.511 315.133 322.432C315.928 322.33 316.573 322.253 317.067 322.202C317.567 322.145 317.931 322.051 318.158 321.92C318.391 321.79 318.508 321.562 318.508 321.239V321.17C318.508 320.33 318.278 319.676 317.817 319.21C317.363 318.744 316.673 318.511 315.746 318.511C314.786 318.511 314.033 318.722 313.488 319.142C312.942 319.562 312.559 320.011 312.337 320.489L310.428 319.807C310.769 319.011 311.224 318.392 311.792 317.949C312.366 317.5 312.991 317.187 313.667 317.011C314.349 316.83 315.019 316.739 315.678 316.739C316.099 316.739 316.582 316.79 317.127 316.892C317.678 316.989 318.21 317.19 318.721 317.497C319.238 317.804 319.667 318.267 320.008 318.886C320.349 319.506 320.519 320.335 320.519 321.375V330H318.508V328.227H318.406C318.269 328.511 318.042 328.815 317.724 329.139C317.406 329.463 316.982 329.739 316.454 329.966C315.925 330.193 315.281 330.307 314.519 330.307ZM314.826 328.5C315.621 328.5 316.292 328.344 316.837 328.031C317.388 327.719 317.803 327.315 318.082 326.821C318.366 326.327 318.508 325.807 318.508 325.261V323.42C318.423 323.523 318.235 323.616 317.945 323.702C317.661 323.781 317.332 323.852 316.957 323.915C316.587 323.972 316.227 324.023 315.874 324.068C315.528 324.108 315.246 324.142 315.031 324.17C314.508 324.239 314.019 324.349 313.565 324.503C313.116 324.651 312.752 324.875 312.474 325.176C312.201 325.472 312.065 325.875 312.065 326.386C312.065 327.085 312.323 327.614 312.84 327.972C313.363 328.324 314.025 328.5 314.826 328.5ZM329.546 335.182C328.575 335.182 327.74 335.057 327.041 334.807C326.342 334.562 325.76 334.239 325.294 333.835C324.833 333.438 324.467 333.011 324.194 332.557L325.796 331.432C325.978 331.67 326.208 331.943 326.487 332.25C326.765 332.562 327.146 332.832 327.629 333.06C328.117 333.293 328.757 333.409 329.546 333.409C330.603 333.409 331.475 333.153 332.163 332.642C332.85 332.131 333.194 331.33 333.194 330.239V327.58H333.024C332.876 327.818 332.666 328.114 332.393 328.466C332.126 328.812 331.74 329.122 331.234 329.395C330.734 329.662 330.058 329.795 329.206 329.795C328.149 329.795 327.2 329.545 326.359 329.045C325.524 328.545 324.862 327.818 324.373 326.864C323.89 325.909 323.649 324.75 323.649 323.386C323.649 322.045 323.885 320.878 324.356 319.884C324.828 318.884 325.484 318.111 326.325 317.565C327.166 317.014 328.137 316.739 329.24 316.739C330.092 316.739 330.768 316.881 331.268 317.165C331.774 317.443 332.16 317.761 332.427 318.119C332.7 318.472 332.91 318.761 333.058 318.989H333.262V316.909H335.206V330.375C335.206 331.5 334.95 332.415 334.438 333.119C333.933 333.83 333.251 334.349 332.393 334.679C331.541 335.014 330.592 335.182 329.546 335.182ZM329.478 327.989C330.285 327.989 330.967 327.804 331.524 327.435C332.081 327.065 332.504 326.534 332.794 325.841C333.083 325.148 333.228 324.318 333.228 323.352C333.228 322.409 333.086 321.577 332.802 320.855C332.518 320.134 332.098 319.568 331.541 319.159C330.984 318.75 330.296 318.545 329.478 318.545C328.626 318.545 327.916 318.761 327.348 319.193C326.785 319.625 326.362 320.205 326.078 320.932C325.799 321.659 325.66 322.466 325.66 323.352C325.66 324.261 325.802 325.065 326.086 325.764C326.376 326.457 326.802 327.003 327.365 327.401C327.933 327.793 328.637 327.989 329.478 327.989ZM338.959 330V316.909H340.903V318.886H341.039C341.278 318.239 341.709 317.713 342.334 317.31C342.959 316.906 343.664 316.705 344.448 316.705C344.596 316.705 344.78 316.707 345.002 316.713C345.224 316.719 345.391 316.727 345.505 316.739V318.784C345.437 318.767 345.28 318.741 345.036 318.707C344.797 318.668 344.545 318.648 344.278 318.648C343.641 318.648 343.073 318.781 342.573 319.048C342.079 319.31 341.687 319.673 341.397 320.139C341.113 320.599 340.971 321.125 340.971 321.716V330H338.959ZM351.813 330.307C350.984 330.307 350.231 330.151 349.555 329.838C348.879 329.52 348.342 329.062 347.944 328.466C347.546 327.864 347.347 327.136 347.347 326.284C347.347 325.534 347.495 324.926 347.791 324.46C348.086 323.989 348.481 323.619 348.975 323.352C349.47 323.085 350.015 322.886 350.612 322.756C351.214 322.619 351.819 322.511 352.427 322.432C353.222 322.33 353.867 322.253 354.362 322.202C354.862 322.145 355.225 322.051 355.453 321.92C355.685 321.79 355.802 321.562 355.802 321.239V321.17C355.802 320.33 355.572 319.676 355.112 319.21C354.657 318.744 353.967 318.511 353.041 318.511C352.08 318.511 351.328 318.722 350.782 319.142C350.237 319.562 349.853 320.011 349.631 320.489L347.722 319.807C348.063 319.011 348.518 318.392 349.086 317.949C349.66 317.5 350.285 317.187 350.961 317.011C351.643 316.83 352.313 316.739 352.972 316.739C353.393 316.739 353.876 316.79 354.421 316.892C354.972 316.989 355.504 317.19 356.015 317.497C356.532 317.804 356.961 318.267 357.302 318.886C357.643 319.506 357.813 320.335 357.813 321.375V330H355.802V328.227H355.7C355.563 328.511 355.336 328.815 355.018 329.139C354.7 329.463 354.276 329.739 353.748 329.966C353.22 330.193 352.575 330.307 351.813 330.307ZM352.12 328.5C352.916 328.5 353.586 328.344 354.131 328.031C354.683 327.719 355.097 327.315 355.376 326.821C355.66 326.327 355.802 325.807 355.802 325.261V323.42C355.717 323.523 355.529 323.616 355.239 323.702C354.955 323.781 354.626 323.852 354.251 323.915C353.881 323.972 353.521 324.023 353.168 324.068C352.822 324.108 352.541 324.142 352.325 324.17C351.802 324.239 351.313 324.349 350.859 324.503C350.41 324.651 350.046 324.875 349.768 325.176C349.495 325.472 349.359 325.875 349.359 326.386C349.359 327.085 349.617 327.614 350.134 327.972C350.657 328.324 351.319 328.5 352.12 328.5ZM361.556 330V316.909H363.5V318.955H363.67C363.943 318.256 364.383 317.713 364.991 317.327C365.599 316.935 366.329 316.739 367.181 316.739C368.045 316.739 368.764 316.935 369.338 317.327C369.917 317.713 370.369 318.256 370.693 318.955H370.829C371.164 318.278 371.667 317.741 372.338 317.344C373.008 316.94 373.812 316.739 374.75 316.739C375.92 316.739 376.877 317.105 377.622 317.838C378.366 318.565 378.738 319.699 378.738 321.239V330H376.727V321.239C376.727 320.273 376.463 319.582 375.934 319.168C375.406 318.753 374.784 318.545 374.068 318.545C373.147 318.545 372.434 318.824 371.929 319.381C371.423 319.932 371.17 320.631 371.17 321.477V330H369.125V321.034C369.125 320.29 368.883 319.69 368.4 319.236C367.917 318.776 367.295 318.545 366.534 318.545C366.011 318.545 365.522 318.685 365.068 318.963C364.619 319.241 364.255 319.628 363.977 320.122C363.704 320.611 363.568 321.176 363.568 321.818V330H361.556ZM86.3099 345.909V347.614H79.5258V345.909H86.3099ZM81.5031 342.773H83.5144V355.25C83.5144 355.818 83.5968 356.244 83.7616 356.528C83.932 356.807 84.1479 356.994 84.4093 357.091C84.6764 357.182 84.9576 357.227 85.2531 357.227C85.4747 357.227 85.6565 357.216 85.7985 357.193C85.9406 357.165 86.0542 357.142 86.1394 357.125L86.5485 358.932C86.4122 358.983 86.2218 359.034 85.9775 359.085C85.7332 359.142 85.4235 359.17 85.0485 359.17C84.4803 359.17 83.9235 359.048 83.3781 358.804C82.8383 358.56 82.3894 358.188 82.0315 357.688C81.6792 357.188 81.5031 356.557 81.5031 355.795V342.773ZM94.585 359.273C93.4032 359.273 92.3663 358.991 91.4742 358.429C90.5878 357.866 89.8947 357.08 89.3947 356.068C88.9003 355.057 88.6532 353.875 88.6532 352.523C88.6532 351.159 88.9003 349.969 89.3947 348.952C89.8947 347.935 90.5878 347.145 91.4742 346.582C92.3663 346.02 93.4032 345.739 94.585 345.739C95.7668 345.739 96.8009 346.02 97.6873 346.582C98.5793 347.145 99.2725 347.935 99.7668 348.952C100.267 349.969 100.517 351.159 100.517 352.523C100.517 353.875 100.267 355.057 99.7668 356.068C99.2725 357.08 98.5793 357.866 97.6873 358.429C96.8009 358.991 95.7668 359.273 94.585 359.273ZM94.585 357.466C95.4827 357.466 96.2214 357.236 96.8009 356.776C97.3805 356.315 97.8094 355.71 98.0878 354.96C98.3663 354.21 98.5055 353.398 98.5055 352.523C98.5055 351.648 98.3663 350.832 98.0878 350.077C97.8094 349.321 97.3805 348.71 96.8009 348.244C96.2214 347.778 95.4827 347.545 94.585 347.545C93.6873 347.545 92.9486 347.778 92.3691 348.244C91.7895 348.71 91.3606 349.321 91.0822 350.077C90.8038 350.832 90.6645 351.648 90.6645 352.523C90.6645 353.398 90.8038 354.21 91.0822 354.96C91.3606 355.71 91.7895 356.315 92.3691 356.776C92.9486 357.236 93.6873 357.466 94.585 357.466ZM115.424 359.273C114.333 359.273 113.37 358.997 112.535 358.446C111.7 357.889 111.046 357.105 110.575 356.094C110.103 355.077 109.867 353.875 109.867 352.489C109.867 351.114 110.103 349.92 110.575 348.909C111.046 347.898 111.703 347.116 112.544 346.565C113.385 346.014 114.356 345.739 115.458 345.739C116.311 345.739 116.984 345.881 117.478 346.165C117.978 346.443 118.359 346.761 118.62 347.119C118.887 347.472 119.095 347.761 119.242 347.989H119.413V341.545H121.424V359H119.481V356.989H119.242C119.095 357.227 118.885 357.528 118.612 357.892C118.339 358.25 117.95 358.571 117.444 358.855C116.939 359.134 116.265 359.273 115.424 359.273ZM115.697 357.466C116.504 357.466 117.186 357.256 117.742 356.835C118.299 356.409 118.723 355.821 119.012 355.071C119.302 354.315 119.447 353.443 119.447 352.455C119.447 351.477 119.305 350.622 119.021 349.889C118.737 349.151 118.316 348.577 117.76 348.168C117.203 347.753 116.515 347.545 115.697 347.545C114.845 347.545 114.135 347.764 113.566 348.202C113.004 348.634 112.581 349.222 112.296 349.966C112.018 350.705 111.879 351.534 111.879 352.455C111.879 353.386 112.021 354.233 112.305 354.994C112.595 355.75 113.021 356.352 113.583 356.801C114.152 357.244 114.856 357.466 115.697 357.466ZM130.778 359.273C129.596 359.273 128.559 358.991 127.667 358.429C126.78 357.866 126.087 357.08 125.587 356.068C125.093 355.057 124.846 353.875 124.846 352.523C124.846 351.159 125.093 349.969 125.587 348.952C126.087 347.935 126.78 347.145 127.667 346.582C128.559 346.02 129.596 345.739 130.778 345.739C131.959 345.739 132.993 346.02 133.88 346.582C134.772 347.145 135.465 347.935 135.959 348.952C136.459 349.969 136.709 351.159 136.709 352.523C136.709 353.875 136.459 355.057 135.959 356.068C135.465 357.08 134.772 357.866 133.88 358.429C132.993 358.991 131.959 359.273 130.778 359.273ZM130.778 357.466C131.675 357.466 132.414 357.236 132.993 356.776C133.573 356.315 134.002 355.71 134.28 354.96C134.559 354.21 134.698 353.398 134.698 352.523C134.698 351.648 134.559 350.832 134.28 350.077C134.002 349.321 133.573 348.71 132.993 348.244C132.414 347.778 131.675 347.545 130.778 347.545C129.88 347.545 129.141 347.778 128.562 348.244C127.982 348.71 127.553 349.321 127.275 350.077C126.996 350.832 126.857 351.648 126.857 352.523C126.857 353.398 126.996 354.21 127.275 354.96C127.553 355.71 127.982 356.315 128.562 356.776C129.141 357.236 129.88 357.466 130.778 357.466ZM141.863 351.125V359H139.852V345.909H141.795V347.955H141.965C142.272 347.29 142.738 346.756 143.363 346.352C143.988 345.943 144.795 345.739 145.784 345.739C146.67 345.739 147.445 345.92 148.11 346.284C148.775 346.642 149.292 347.188 149.661 347.92C150.031 348.648 150.215 349.568 150.215 350.682V359H148.204V350.818C148.204 349.79 147.937 348.989 147.403 348.415C146.869 347.835 146.136 347.545 145.204 347.545C144.562 347.545 143.988 347.685 143.482 347.963C142.982 348.241 142.587 348.648 142.298 349.182C142.008 349.716 141.863 350.364 141.863 351.125ZM159.656 345.909V347.614H152.872V345.909H159.656ZM154.849 342.773H156.86V355.25C156.86 355.818 156.943 356.244 157.108 356.528C157.278 356.807 157.494 356.994 157.755 357.091C158.022 357.182 158.304 357.227 158.599 357.227C158.821 357.227 159.003 357.216 159.145 357.193C159.287 357.165 159.4 357.142 159.485 357.125L159.895 358.932C159.758 358.983 159.568 359.034 159.324 359.085C159.079 359.142 158.77 359.17 158.395 359.17C157.826 359.17 157.27 359.048 156.724 358.804C156.184 358.56 155.735 358.188 155.378 357.688C155.025 357.188 154.849 356.557 154.849 355.795V342.773ZM169.576 359V345.909H171.519V347.955H171.689C171.962 347.256 172.402 346.713 173.01 346.327C173.618 345.935 174.348 345.739 175.201 345.739C176.064 345.739 176.783 345.935 177.357 346.327C177.936 346.713 178.388 347.256 178.712 347.955H178.848C179.183 347.278 179.686 346.741 180.357 346.344C181.027 345.94 181.831 345.739 182.769 345.739C183.939 345.739 184.897 346.105 185.641 346.838C186.385 347.565 186.757 348.699 186.757 350.239V359H184.746V350.239C184.746 349.273 184.482 348.582 183.953 348.168C183.425 347.753 182.803 347.545 182.087 347.545C181.166 347.545 180.453 347.824 179.948 348.381C179.442 348.932 179.189 349.631 179.189 350.477V359H177.144V350.034C177.144 349.29 176.902 348.69 176.419 348.236C175.936 347.776 175.314 347.545 174.553 347.545C174.03 347.545 173.541 347.685 173.087 347.963C172.638 348.241 172.274 348.628 171.996 349.122C171.723 349.611 171.587 350.176 171.587 350.818V359H169.576ZM190.507 359V345.909H192.518V359H190.507ZM191.53 343.727C191.138 343.727 190.8 343.594 190.515 343.327C190.237 343.06 190.098 342.739 190.098 342.364C190.098 341.989 190.237 341.668 190.515 341.401C190.8 341.134 191.138 341 191.53 341C191.922 341 192.257 341.134 192.535 341.401C192.819 341.668 192.961 341.989 192.961 342.364C192.961 342.739 192.819 343.06 192.535 343.327C192.257 343.594 191.922 343.727 191.53 343.727ZM205.547 348.841L203.74 349.352C203.626 349.051 203.459 348.759 203.237 348.474C203.021 348.185 202.726 347.946 202.351 347.759C201.976 347.571 201.496 347.477 200.911 347.477C200.109 347.477 199.442 347.662 198.908 348.031C198.379 348.395 198.115 348.858 198.115 349.42C198.115 349.92 198.297 350.315 198.661 350.605C199.024 350.895 199.592 351.136 200.365 351.33L202.308 351.807C203.479 352.091 204.351 352.526 204.925 353.111C205.499 353.69 205.786 354.437 205.786 355.352C205.786 356.102 205.57 356.773 205.138 357.364C204.712 357.955 204.115 358.42 203.348 358.761C202.581 359.102 201.689 359.273 200.672 359.273C199.337 359.273 198.232 358.983 197.357 358.403C196.482 357.824 195.928 356.977 195.695 355.864L197.604 355.386C197.786 356.091 198.129 356.619 198.635 356.972C199.146 357.324 199.814 357.5 200.638 357.5C201.575 357.5 202.32 357.301 202.871 356.903C203.428 356.5 203.706 356.017 203.706 355.455C203.706 355 203.547 354.619 203.229 354.312C202.911 354 202.422 353.767 201.763 353.614L199.581 353.102C198.382 352.818 197.501 352.378 196.939 351.781C196.382 351.179 196.104 350.426 196.104 349.523C196.104 348.784 196.311 348.131 196.726 347.562C197.146 346.994 197.717 346.548 198.439 346.224C199.166 345.901 199.99 345.739 200.911 345.739C202.206 345.739 203.223 346.023 203.962 346.591C204.706 347.159 205.234 347.909 205.547 348.841ZM218.158 348.841L216.351 349.352C216.238 349.051 216.07 348.759 215.848 348.474C215.632 348.185 215.337 347.946 214.962 347.759C214.587 347.571 214.107 347.477 213.522 347.477C212.72 347.477 212.053 347.662 211.519 348.031C210.99 348.395 210.726 348.858 210.726 349.42C210.726 349.92 210.908 350.315 211.272 350.605C211.635 350.895 212.203 351.136 212.976 351.33L214.919 351.807C216.09 352.091 216.962 352.526 217.536 353.111C218.11 353.69 218.397 354.437 218.397 355.352C218.397 356.102 218.181 356.773 217.749 357.364C217.323 357.955 216.726 358.42 215.959 358.761C215.192 359.102 214.3 359.273 213.283 359.273C211.948 359.273 210.843 358.983 209.968 358.403C209.093 357.824 208.539 356.977 208.306 355.864L210.215 355.386C210.397 356.091 210.74 356.619 211.246 356.972C211.757 357.324 212.425 357.5 213.249 357.5C214.186 357.5 214.931 357.301 215.482 356.903C216.039 356.5 216.317 356.017 216.317 355.455C216.317 355 216.158 354.619 215.84 354.312C215.522 354 215.033 353.767 214.374 353.614L212.192 353.102C210.993 352.818 210.113 352.378 209.55 351.781C208.993 351.179 208.715 350.426 208.715 349.523C208.715 348.784 208.922 348.131 209.337 347.562C209.757 346.994 210.328 346.548 211.05 346.224C211.777 345.901 212.601 345.739 213.522 345.739C214.817 345.739 215.834 346.023 216.573 346.591C217.317 347.159 217.845 347.909 218.158 348.841ZM234.012 345.909V347.614H227.227V345.909H234.012ZM229.205 342.773H231.216V355.25C231.216 355.818 231.298 356.244 231.463 356.528C231.634 356.807 231.85 356.994 232.111 357.091C232.378 357.182 232.659 357.227 232.955 357.227C233.176 357.227 233.358 357.216 233.5 357.193C233.642 357.165 233.756 357.142 233.841 357.125L234.25 358.932C234.114 358.983 233.923 359.034 233.679 359.085C233.435 359.142 233.125 359.17 232.75 359.17C232.182 359.17 231.625 359.048 231.08 358.804C230.54 358.56 230.091 358.188 229.733 357.688C229.381 357.188 229.205 356.557 229.205 355.795V342.773ZM239.402 351.125V359H237.39V341.545H239.402V347.955H239.572C239.879 347.278 240.339 346.741 240.953 346.344C241.572 345.94 242.396 345.739 243.424 345.739C244.316 345.739 245.098 345.918 245.768 346.276C246.439 346.628 246.958 347.17 247.328 347.903C247.703 348.631 247.89 349.557 247.89 350.682V359H245.879V350.818C245.879 349.778 245.609 348.974 245.069 348.406C244.535 347.832 243.794 347.545 242.845 347.545C242.186 347.545 241.595 347.685 241.072 347.963C240.555 348.241 240.146 348.648 239.845 349.182C239.549 349.716 239.402 350.364 239.402 351.125ZM256.96 359.273C255.778 359.273 254.741 358.991 253.849 358.429C252.963 357.866 252.27 357.08 251.77 356.068C251.276 355.057 251.028 353.875 251.028 352.523C251.028 351.159 251.276 349.969 251.77 348.952C252.27 347.935 252.963 347.145 253.849 346.582C254.741 346.02 255.778 345.739 256.96 345.739C258.142 345.739 259.176 346.02 260.062 346.582C260.955 347.145 261.648 347.935 262.142 348.952C262.642 349.969 262.892 351.159 262.892 352.523C262.892 353.875 262.642 355.057 262.142 356.068C261.648 357.08 260.955 357.866 260.062 358.429C259.176 358.991 258.142 359.273 256.96 359.273ZM256.96 357.466C257.858 357.466 258.597 357.236 259.176 356.776C259.756 356.315 260.185 355.71 260.463 354.96C260.741 354.21 260.881 353.398 260.881 352.523C260.881 351.648 260.741 350.832 260.463 350.077C260.185 349.321 259.756 348.71 259.176 348.244C258.597 347.778 257.858 347.545 256.96 347.545C256.062 347.545 255.324 347.778 254.744 348.244C254.165 348.71 253.736 349.321 253.457 350.077C253.179 350.832 253.04 351.648 253.04 352.523C253.04 353.398 253.179 354.21 253.457 354.96C253.736 355.71 254.165 356.315 254.744 356.776C255.324 357.236 256.062 357.466 256.96 357.466ZM275.307 348.841L273.5 349.352C273.387 349.051 273.219 348.759 272.997 348.474C272.781 348.185 272.486 347.946 272.111 347.759C271.736 347.571 271.256 347.477 270.671 347.477C269.87 347.477 269.202 347.662 268.668 348.031C268.139 348.395 267.875 348.858 267.875 349.42C267.875 349.92 268.057 350.315 268.421 350.605C268.784 350.895 269.352 351.136 270.125 351.33L272.068 351.807C273.239 352.091 274.111 352.526 274.685 353.111C275.259 353.69 275.546 354.437 275.546 355.352C275.546 356.102 275.33 356.773 274.898 357.364C274.472 357.955 273.875 358.42 273.108 358.761C272.341 359.102 271.449 359.273 270.432 359.273C269.097 359.273 267.992 358.983 267.117 358.403C266.242 357.824 265.688 356.977 265.455 355.864L267.364 355.386C267.546 356.091 267.889 356.619 268.395 356.972C268.906 357.324 269.574 357.5 270.398 357.5C271.335 357.5 272.08 357.301 272.631 356.903C273.188 356.5 273.466 356.017 273.466 355.455C273.466 355 273.307 354.619 272.989 354.312C272.671 354 272.182 353.767 271.523 353.614L269.341 353.102C268.142 352.818 267.262 352.378 266.699 351.781C266.142 351.179 265.864 350.426 265.864 349.523C265.864 348.784 266.071 348.131 266.486 347.562C266.906 346.994 267.477 346.548 268.199 346.224C268.926 345.901 269.75 345.739 270.671 345.739C271.966 345.739 272.983 346.023 273.722 346.591C274.466 347.159 274.995 347.909 275.307 348.841ZM284.134 359.273C282.873 359.273 281.785 358.994 280.87 358.438C279.961 357.875 279.259 357.091 278.765 356.085C278.276 355.074 278.032 353.898 278.032 352.557C278.032 351.216 278.276 350.034 278.765 349.011C279.259 347.983 279.947 347.182 280.827 346.608C281.714 346.028 282.748 345.739 283.929 345.739C284.611 345.739 285.285 345.852 285.949 346.08C286.614 346.307 287.219 346.676 287.765 347.188C288.31 347.693 288.745 348.364 289.069 349.199C289.393 350.034 289.554 351.062 289.554 352.284V353.136H279.464V351.398H287.509C287.509 350.659 287.361 350 287.066 349.42C286.776 348.841 286.361 348.384 285.822 348.048C285.287 347.713 284.657 347.545 283.929 347.545C283.128 347.545 282.435 347.744 281.85 348.142C281.27 348.534 280.824 349.045 280.512 349.676C280.199 350.307 280.043 350.983 280.043 351.705V352.864C280.043 353.852 280.214 354.69 280.554 355.378C280.901 356.06 281.381 356.58 281.995 356.938C282.608 357.29 283.322 357.466 284.134 357.466C284.662 357.466 285.14 357.392 285.566 357.244C285.998 357.091 286.37 356.864 286.682 356.562C286.995 356.256 287.236 355.875 287.407 355.42L289.35 355.966C289.145 356.625 288.802 357.205 288.319 357.705C287.836 358.199 287.239 358.585 286.529 358.864C285.819 359.136 285.02 359.273 284.134 359.273ZM304.826 359.273C303.644 359.273 302.608 358.991 301.716 358.429C300.829 357.866 300.136 357.08 299.636 356.068C299.142 355.057 298.894 353.875 298.894 352.523C298.894 351.159 299.142 349.969 299.636 348.952C300.136 347.935 300.829 347.145 301.716 346.582C302.608 346.02 303.644 345.739 304.826 345.739C306.008 345.739 307.042 346.02 307.929 346.582C308.821 347.145 309.514 347.935 310.008 348.952C310.508 349.969 310.758 351.159 310.758 352.523C310.758 353.875 310.508 355.057 310.008 356.068C309.514 357.08 308.821 357.866 307.929 358.429C307.042 358.991 306.008 359.273 304.826 359.273ZM304.826 357.466C305.724 357.466 306.463 357.236 307.042 356.776C307.622 356.315 308.051 355.71 308.329 354.96C308.608 354.21 308.747 353.398 308.747 352.523C308.747 351.648 308.608 350.832 308.329 350.077C308.051 349.321 307.622 348.71 307.042 348.244C306.463 347.778 305.724 347.545 304.826 347.545C303.929 347.545 303.19 347.778 302.61 348.244C302.031 348.71 301.602 349.321 301.323 350.077C301.045 350.832 300.906 351.648 300.906 352.523C300.906 353.398 301.045 354.21 301.323 354.96C301.602 355.71 302.031 356.315 302.61 356.776C303.19 357.236 303.929 357.466 304.826 357.466ZM319.73 345.909V347.614H312.673V345.909H319.73ZM314.787 359V344.102C314.787 343.352 314.963 342.727 315.315 342.227C315.667 341.727 316.125 341.352 316.687 341.102C317.25 340.852 317.844 340.727 318.469 340.727C318.963 340.727 319.366 340.767 319.679 340.847C319.991 340.926 320.224 341 320.378 341.068L319.798 342.807C319.696 342.773 319.554 342.73 319.372 342.679C319.196 342.628 318.963 342.602 318.673 342.602C318.008 342.602 317.528 342.77 317.233 343.105C316.943 343.44 316.798 343.932 316.798 344.58V359H314.787ZM328.45 345.909V347.614H321.394V345.909H328.45ZM323.507 359V344.102C323.507 343.352 323.683 342.727 324.036 342.227C324.388 341.727 324.845 341.352 325.408 341.102C325.97 340.852 326.564 340.727 327.189 340.727C327.683 340.727 328.087 340.767 328.399 340.847C328.712 340.926 328.945 341 329.098 341.068L328.519 342.807C328.416 342.773 328.274 342.73 328.092 342.679C327.916 342.628 327.683 342.602 327.394 342.602C326.729 342.602 326.249 342.77 325.953 343.105C325.663 343.44 325.519 343.932 325.519 344.58V359H323.507ZM336.291 359.273C335.03 359.273 333.941 358.994 333.027 358.438C332.118 357.875 331.416 357.091 330.922 356.085C330.433 355.074 330.189 353.898 330.189 352.557C330.189 351.216 330.433 350.034 330.922 349.011C331.416 347.983 332.103 347.182 332.984 346.608C333.87 346.028 334.905 345.739 336.086 345.739C336.768 345.739 337.441 345.852 338.106 346.08C338.771 346.307 339.376 346.676 339.922 347.188C340.467 347.693 340.902 348.364 341.226 349.199C341.549 350.034 341.711 351.062 341.711 352.284V353.136H331.62V351.398H339.666C339.666 350.659 339.518 350 339.223 349.42C338.933 348.841 338.518 348.384 337.978 348.048C337.444 347.713 336.814 347.545 336.086 347.545C335.285 347.545 334.592 347.744 334.007 348.142C333.427 348.534 332.981 349.045 332.669 349.676C332.356 350.307 332.2 350.983 332.2 351.705V352.864C332.2 353.852 332.37 354.69 332.711 355.378C333.058 356.06 333.538 356.58 334.152 356.938C334.765 357.29 335.478 357.466 336.291 357.466C336.819 357.466 337.297 357.392 337.723 357.244C338.155 357.091 338.527 356.864 338.839 356.562C339.152 356.256 339.393 355.875 339.564 355.42L341.507 355.966C341.302 356.625 340.959 357.205 340.476 357.705C339.993 358.199 339.396 358.585 338.686 358.864C337.976 359.136 337.177 359.273 336.291 359.273ZM344.843 359V345.909H346.786V347.886H346.923C347.161 347.239 347.593 346.713 348.218 346.31C348.843 345.906 349.548 345.705 350.332 345.705C350.479 345.705 350.664 345.707 350.886 345.713C351.107 345.719 351.275 345.727 351.388 345.739V347.784C351.32 347.767 351.164 347.741 350.92 347.707C350.681 347.668 350.428 347.648 350.161 347.648C349.525 347.648 348.957 347.781 348.457 348.048C347.962 348.31 347.57 348.673 347.281 349.139C346.996 349.599 346.854 350.125 346.854 350.716V359H344.843ZM363.117 348.841L361.311 349.352C361.197 349.051 361.029 348.759 360.808 348.474C360.592 348.185 360.296 347.946 359.921 347.759C359.546 347.571 359.066 347.477 358.481 347.477C357.68 347.477 357.012 347.662 356.478 348.031C355.95 348.395 355.686 348.858 355.686 349.42C355.686 349.92 355.867 350.315 356.231 350.605C356.595 350.895 357.163 351.136 357.936 351.33L359.879 351.807C361.049 352.091 361.921 352.526 362.495 353.111C363.069 353.69 363.356 354.437 363.356 355.352C363.356 356.102 363.14 356.773 362.708 357.364C362.282 357.955 361.686 358.42 360.919 358.761C360.152 359.102 359.259 359.273 358.242 359.273C356.907 359.273 355.802 358.983 354.927 358.403C354.052 357.824 353.498 356.977 353.265 355.864L355.174 355.386C355.356 356.091 355.7 356.619 356.205 356.972C356.717 357.324 357.384 357.5 358.208 357.5C359.146 357.5 359.89 357.301 360.441 356.903C360.998 356.5 361.277 356.017 361.277 355.455C361.277 355 361.117 354.619 360.799 354.312C360.481 354 359.992 353.767 359.333 353.614L357.152 353.102C355.953 352.818 355.072 352.378 354.509 351.781C353.953 351.179 353.674 350.426 353.674 349.523C353.674 348.784 353.882 348.131 354.296 347.562C354.717 346.994 355.288 346.548 356.009 346.224C356.737 345.901 357.561 345.739 358.481 345.739C359.777 345.739 360.794 346.023 361.532 346.591C362.277 347.159 362.805 347.909 363.117 348.841ZM367.922 359.136C367.501 359.136 367.14 358.986 366.839 358.685C366.538 358.384 366.388 358.023 366.388 357.602C366.388 357.182 366.538 356.821 366.839 356.52C367.14 356.219 367.501 356.068 367.922 356.068C368.342 356.068 368.703 356.219 369.004 356.52C369.305 356.821 369.456 357.182 369.456 357.602C369.456 357.881 369.385 358.136 369.243 358.369C369.106 358.602 368.922 358.79 368.689 358.932C368.461 359.068 368.206 359.136 367.922 359.136Z" fill="#353A40"/>
<g id="Rent">
<circle id="Ellipse 61" cx="224.5" cy="77.5" r="77.5" fill="#E9E9E9"/>
</g>
<g id="Group 52">
<g id="Frame 45">
<path id="Vector" d="M219.832 70.72C221.127 70.72 222.176 69.6706 222.176 68.3763V52.6121L223.198 53.2517C224.295 53.9385 225.741 53.6054 226.428 52.5085C227.115 51.4112 226.782 49.9649 225.685 49.2782L206.636 37.355C205.871 36.8757 204.896 36.8877 204.149 37.355L185.1 49.2782C184.003 49.9651 183.671 51.4113 184.357 52.5085C185.044 53.6059 186.491 53.9382 187.588 53.2517L188.609 52.6121V68.3761C188.609 69.6705 189.659 70.7199 190.953 70.7199C192.216 70.72 218.742 70.72 219.832 70.72ZM203.405 66.0323V56.3773H207.381V66.0323H203.405ZM193.297 49.6781L205.393 42.1069L217.489 49.6781V66.0323H212.068V54.0335C212.068 52.7392 211.019 51.6898 209.725 51.6898H201.061C199.767 51.6898 198.717 52.7392 198.717 54.0335V66.0323H193.297V49.6781Z" fill="#878987"/>
<path id="Vector_2" d="M245.007 79.0138C234.535 79.0138 226.015 87.5341 226.015 98.007C226.015 108.48 234.535 117 245.007 117C255.48 117 264 108.48 264 98.007C264 87.5341 255.48 79.0138 245.007 79.0138ZM245.007 112.313C237.119 112.313 230.702 105.895 230.702 98.007C230.702 90.1188 237.119 83.7015 245.007 83.7015C252.895 83.7015 259.312 90.1188 259.312 98.007C259.312 105.895 252.895 112.313 245.007 112.313Z" fill="#878987"/>
<path id="Vector_3" d="M250.653 61.326C250.653 62.6204 251.702 63.6698 252.997 63.6698C254.291 63.6698 255.341 62.6204 255.341 61.326V53.5618C255.341 52.268 254.29 51.218 252.997 51.218H245.233C243.939 51.218 242.889 52.2674 242.889 53.5618C242.889 54.8562 243.939 55.9055 245.233 55.9055H247.339L222.132 81.113L215.643 74.6241C214.728 73.7087 213.244 73.7087 212.329 74.6241L193.346 93.6069C192.431 94.5223 192.431 96.0063 193.346 96.9215C194.261 97.837 195.745 97.8368 196.661 96.9215L213.986 79.5958L220.475 86.0847C221.39 87 222.874 87 223.789 86.0847L250.653 59.2201V61.326Z" fill="#878987"/>
<path id="Vector_4" d="M247.399 95.7076C246.326 95.3276 244.539 94.6787 243.664 93.9951C243.496 93.7826 243.607 92.792 244.302 92.5826C245.182 92.3181 246.009 92.4929 246.527 92.8826L246.519 92.8748C246.525 92.8795 246.539 92.892 246.558 92.9076C246.554 92.9045 246.547 92.8998 246.539 92.8936C246.702 93.0498 247.632 93.8405 249.093 93.2529C250.708 92.6045 250.413 90.8201 250.361 90.5545C250.31 90.2889 250.052 89.7201 249.691 89.4232C249.202 88.9701 248.352 88.4264 247.254 88.0889V88.0076C247.254 86.7451 246.257 85.717 245.008 85.667C243.859 85.5574 242.566 86.5609 242.566 88.0076V88.2264C240.738 88.9264 239.394 90.5592 239.014 92.5734C238.636 94.5781 239.307 96.533 240.761 97.6736C242.148 98.7628 244.159 99.5375 245.836 100.128C246.639 100.411 246.98 100.95 246.849 101.73C246.749 102.327 246.249 103.322 245.008 103.388C243.411 103.454 242.973 103.251 242.08 102.667C240.997 101.958 239.544 102.263 238.836 103.345C238.127 104.428 238.432 105.881 239.514 106.589C240.661 107.341 241.578 107.725 242.566 107.914C242.566 109.552 243.923 110.452 245.008 110.349C246.257 110.299 247.254 109.269 247.254 108.008V107.647C249.422 106.827 251.068 104.91 251.472 102.508C251.98 99.4811 250.344 96.7483 247.399 95.7076Z" fill="#878987"/>
</g>
</g>
</g>
</svg>
